<svg width="512" height="512" viewBox="0 0 512 512" fill="none" xmlns="http://www.w3.org/2000/svg">
  <rect width="512" height="512" rx="96" fill="#0B1220"/>
  <circle cx="256" cy="256" r="178" fill="#F8FAFC"/>
  <circle cx="256" cy="256" r="146" fill="#F7931A"/>
  <path d="M292.2 139.5L284.8 169.1C304.5 174.6 318.6 184.2 327.1 197.9C335.7 211.6 337.3 226.2 332 241.7C328.3 252.7 322.2 261.1 313.7 266.8C330.9 277.1 338.2 293.5 335.6 316.1C333.3 337.2 323.3 352.9 305.5 363.3C287.7 373.6 264.1 377 234.8 373.4L227.5 402.5L209.7 398.1L216.8 369.7C211.4 368.4 205.9 367 200.2 365.4L193 394L175.2 389.6L182.6 360.2C178 359 173.4 357.8 168.7 356.6L145.5 350.8L154.4 329.9C156.9 330.6 160.4 331.5 164.8 332.6C168.4 333.5 171.2 332.4 173.3 329.3C174.1 328.2 186 281.6 209 189.5C209.3 184.4 206.8 181.1 201.5 179.8C197.4 178.8 194.1 178 191.6 177.5L196.8 156.8L221.5 163C225.8 164.1 230.1 165.1 234.4 166.1L241.7 136.9L259.5 141.3L252.4 169.7C258.1 170.9 263.6 172.2 268.8 173.6L276.2 135.1L292.2 139.5ZM238.1 274L226.3 321.3C244.6 326 259.3 326.9 270.3 324C281.3 321.1 287.8 314.6 289.9 304.5C292.1 294.2 288.5 286.7 279.1 281.9C269.8 277.1 256.1 274.5 238.1 274ZM250.4 224.8C266 228.8 278.4 229.4 287.5 226.6C296.7 223.7 302.2 218.1 304 209.6C305.9 200.5 302.9 193.9 295 189.8C287 185.8 275.1 183.5 259.3 183L250.4 224.8Z" fill="#0B1220"/>
</svg>
